<svg width="251" height="208" viewBox="0 0 251 208" fill="none" xmlns="http://www.w3.org/2000/svg">
<rect width="251" height="208" fill="white"/>
<rect width="251" height="208" fill="#0ACF83"/>
<path d="M126.032 137.152C121.488 137.152 117.456 136.128 113.936 134.08C110.416 131.968 107.632 129.056 105.584 125.344C103.6 121.632 102.608 117.248 102.608 112.192C102.608 107.2 103.6 102.848 105.584 99.136C107.568 95.36 110.32 92.448 113.84 90.4C117.424 88.288 121.552 87.232 126.224 87.232C130.832 87.232 134.8 88.288 138.128 90.4C141.52 92.448 144.112 95.168 145.904 98.56C147.696 101.952 148.592 105.6 148.592 109.504C148.592 110.208 148.56 110.912 148.496 111.616C148.496 112.32 148.496 113.12 148.496 114.016H110.576C110.768 117.664 111.6 120.704 113.072 123.136C114.608 125.504 116.496 127.296 118.736 128.512C121.04 129.728 123.472 130.336 126.032 130.336C129.36 130.336 132.144 129.568 134.384 128.032C136.624 126.496 138.256 124.416 139.28 121.792H147.248C145.968 126.208 143.504 129.888 139.856 132.832C136.272 135.712 131.664 137.152 126.032 137.152ZM126.032 94.048C122.192 94.048 118.768 95.232 115.76 97.6C112.816 99.904 111.12 103.296 110.672 107.776H140.624C140.432 103.488 138.96 100.128 136.208 97.696C133.456 95.264 130.064 94.048 126.032 94.048Z" fill="#F6F6F6"/>
</svg>
